# xmcd CD database file
#
# Track frame offsets:
#	150
#	10842
#	29442
#	43850
#	54882
#	65457
#	77992
#	88090
#	97660
#	108700
#	119957
#	136535
#
# Disc length: 1965 seconds
#
# Revision: 0
# Processed by: cddbd v1.4PL0 Copyright (c) Steve Scherf et al.
# Submitted via: Feurio! 1.63 - http://www.feurio.com
#
DISCID=9b07ab0c
DTITLE=Newman, Jimmy C. - Cajun Classics
DYEAR=1900
DGENRE=
TTITLE0=The Happy Cajun
TTITLE1=Lache Pas La Patate (The Potato Song)
TTITLE2=Basile Waltz
TTITLE3=Diggy Liggy Lo
TTITLE4=Big Texas (Grand Texas)
TTITLE5=A Cajun Man Can
TTITLE6=Alligator Man
TTITLE7=Hippie Ti Yo
TTITLE8=Big Bayou
TTITLE9=Grand Chenier
TTITLE10=Sugar Bee
TTITLE11=Alons A Lafayette
EXTD=
EXTT0=
EXTT1=
EXTT2=
EXTT3=
EXTT4=
EXTT5=
EXTT6=
EXTT7=
EXTT8=
EXTT9=
EXTT10=
EXTT11=
PLAYORDER=
